<svg xmlns="http://www.w3.org/2000/svg" viewBox="0 0 6.89 6.16"><defs><style>.cls-1{fill:#fff;fill-rule:evenodd;}</style></defs><title>Recurso 4</title><g id="Capa_2" data-name="Capa 2"><g id="_ÎÓÈ_1" data-name="—ÎÓÈ 1"><path class="cls-1" d="M3.26.59v5a.07.07,0,0,1-.07.07H1a.07.07,0,0,1-.07-.07v-5A.07.07,0,0,1,1,.52H3.18a.07.07,0,0,1,.07.07ZM.07,6.16H6.82a.07.07,0,1,0,0-.14H6.41a.43.43,0,0,0,.11-.29V.43A.43.43,0,0,0,6.09,0H.8a.43.43,0,0,0-.3.13h0A.43.43,0,0,0,.37.43V5.72A.43.43,0,0,0,.48,6H.07a.07.07,0,0,0,0,.14Zm3.11-6H.8A.29.29,0,0,0,.6.23h0a.29.29,0,0,0-.08.2V5.72A.29.29,0,0,0,.8,6H6.09a.29.29,0,0,0,.2-.08h0a.29.29,0,0,0,.08-.2V.43A.29.29,0,0,0,6.09.14H3.18Zm.45,5.42v-3a.07.07,0,0,1,.07-.07H5.93A.07.07,0,0,1,6,2.61v3a.07.07,0,0,1-.07.07H3.7a.07.07,0,0,1-.07-.07Zm.14-2.88H5.86V5.49H3.78V2.69Zm-.14-.59V.59A.07.07,0,0,1,3.7.52H5.93A.07.07,0,0,1,6,.59v1.5a.07.07,0,0,1-.07.07H3.7a.07.07,0,0,1-.07-.07ZM3.78.66H5.86V2H3.78V.66ZM3.11,5.49V.66H1V5.49Z"/></g></g></svg>