<svg xmlns="http://www.w3.org/2000/svg" viewBox="0 0 6.99 4.21"><defs><style>.cls-1{fill:#fff;fill-rule:evenodd;}</style></defs><title>Recurso 7</title><g id="Capa_2" data-name="Capa 2"><g id="_ÎÓÈ_1" data-name="—ÎÓÈ 1"><path class="cls-1" d="M4.12.35H5a.25.25,0,0,1,.13,0A.27.27,0,0,1,5.19.5l.62,1.21a.07.07,0,0,1,0,.1H4.12a.07.07,0,0,1-.07-.07V.43A.07.07,0,0,1,4.12.35ZM2.45,1.82a.07.07,0,1,1,0,.14H.56a.07.07,0,0,1,0-.14ZM1.52,3.34a.21.21,0,0,0-.15.06h0a.21.21,0,0,0,0,.3h0a.21.21,0,0,0,.3,0h0a.21.21,0,0,0-.15-.36Zm-.25,0a.36.36,0,0,1,.51.5h0a.36.36,0,0,1-.5,0h0a.36.36,0,0,1,0-.5Zm4.4,0a.21.21,0,0,0-.15.06h0a.21.21,0,0,0,0,.3h0a.21.21,0,0,0,.3-.3h0a.21.21,0,0,0-.15-.06Zm-.25,0a.36.36,0,0,1,.5,0h0a.36.36,0,0,1-.5.51h0a.36.36,0,0,1,0-.5ZM5.67,3A.51.51,0,0,1,6,3.19H6a.51.51,0,0,1-.72.72h0A.51.51,0,0,1,5.67,3Zm-.46,0a.65.65,0,0,1,.92,0h0A.65.65,0,1,1,5.2,4h0a.65.65,0,0,1,0-.92ZM1.52,3a.51.51,0,0,1,.36.15h0a.51.51,0,0,1-.72.72h0a.51.51,0,0,1,0-.72h0A.51.51,0,0,1,1.52,3Zm-.46,0a.65.65,0,0,1,.92,0H2A.65.65,0,0,1,1.06,4h0a.65.65,0,0,1,0-.92ZM.55,0a.43.43,0,0,0-.3.13h0A.43.43,0,0,0,.12.43V2.54h0A.07.07,0,0,0,0,2.61v.48a.43.43,0,0,0,.43.43h.2A.07.07,0,0,0,.7,3.46a.82.82,0,0,1,1.63,0,.07.07,0,0,0,.07.07H4.78a.07.07,0,0,0,.07-.06.82.82,0,0,1,1.63,0,.07.07,0,0,0,.07.07h.18A.25.25,0,0,0,7,3.27V2.61a.07.07,0,0,0-.07-.07h0V2.16a.43.43,0,0,0-.36-.43l-.31,0L5.48.25A.47.47,0,0,0,5.32.07.42.42,0,0,0,5.09,0ZM5.09.14H.55a.29.29,0,0,0-.2.08h0a.29.29,0,0,0-.08.2V2.61a.07.07,0,0,1-.07.07h0v.4a.29.29,0,0,0,.29.29H.57a1,1,0,0,1,1.9,0H4.72a1,1,0,0,1,1.9,0h.12a.11.11,0,0,0,.11-.11V2.68h0a.07.07,0,0,1-.07-.07V2.16a.29.29,0,0,0-.24-.28l-.35-.05h0a.07.07,0,0,1-.05,0L5.35.32A.32.32,0,0,0,5.24.19a.28.28,0,0,0-.15,0ZM5,.5H4.2V1.67H5.63L5.06.56,5,.51Z"/></g></g></svg>