<svg xmlns="http://www.w3.org/2000/svg" viewBox="0 0 7 6.25"><defs><style>.cls-1{fill:#fff;fill-rule:evenodd;}</style></defs><title>Recurso 5</title><g id="Capa_2" data-name="Capa 2"><g id="_ÎÓÈ_1" data-name="—ÎÓÈ 1"><path class="cls-1" d="M3,4.7h3.9V4.52H.14V4.7H3ZM4.13.14V1.66a.07.07,0,0,1,0,0L3.93,2a.07.07,0,0,1-.1,0l0,0-.12-.19L3.56,2a.07.07,0,0,1-.1,0l0,0-.12-.19L3.19,2a.07.07,0,0,1-.1,0l0,0L2.88,1.7a.07.07,0,0,1,0,0h0V.14H1a.29.29,0,0,0-.2.08h0a.29.29,0,0,0-.08.2V4.08A.29.29,0,0,0,1,4.37H6a.29.29,0,0,0,.29-.29V.43A.29.29,0,0,0,6,.14ZM3,.14H4V1.64l-.11.17-.12-.19a.07.07,0,0,0-.1,0l0,0-.12.19-.12-.19a.07.07,0,0,0-.1,0l0,0-.12.19L3,1.64V.14ZM5.65,3.67a.07.07,0,0,1-.14,0v-1l0,.13a.07.07,0,0,1-.09,0,.07.07,0,0,1,0-.09l.18-.48a.07.07,0,0,1,.07-.06h0a.07.07,0,0,1,.06,0l.19.49a.07.07,0,1,1-.13.05l0-.13v1Zm-.57,0a.07.07,0,0,1-.14,0v-1l0,.13a.07.07,0,0,1-.09,0,.07.07,0,0,1,0-.09l.18-.48A.07.07,0,0,1,5,2.2H5a.07.07,0,0,1,0,0h0l.19.49a.07.07,0,1,1-.13.05l0-.13v1Zm.69.24a.07.07,0,0,1,0,.14H4.82a.07.07,0,0,1,0-.14ZM6.39.43V4.08a.43.43,0,0,1-.11.29h.65A.07.07,0,0,1,7,4.44v.33a.07.07,0,0,1-.07.07H6.66v.94h.27A.07.07,0,0,1,7,5.85v.33a.07.07,0,0,1-.07.07H.07A.07.07,0,0,1,0,6.18V5.85a.07.07,0,0,1,.07-.07H.34V4.84H.07A.07.07,0,0,1,0,4.77V4.44a.07.07,0,0,1,.07-.07H.72a.43.43,0,0,1-.11-.29V.43A.43.43,0,0,1,.73.13h0A.43.43,0,0,1,1,0H6a.43.43,0,0,1,.43.43ZM1.57,4.84v.94H2.89V4.84Zm-1.08,0v.94h.94V4.84Zm4.95.94V4.84H4.11v.94Zm.14-.94v.94h.94V4.84ZM4,5.92H.14v.18H6.85V5.92H4ZM4,4.84H3v.94H4Z"/></g></g></svg>