<svg xmlns="http://www.w3.org/2000/svg" viewBox="0 0 221.7 141.7"><defs><style>.cls-1{fill:#ffe35f;}.cls-2{fill:#484a7d;}.cls-3{fill:#fed6c0;}.cls-4{fill:#fcc6b1;}.cls-5{fill:#fff;}.cls-6{fill:#00c2de;}.cls-7{fill:#e6fffe;}</style></defs><title>mano1</title><g id="Capa_2" data-name="Capa 2"><g id="Capa_1-2" data-name="Capa 1"><polyline class="cls-1" points="0.1 118 28.5 118 28.5 82.1 0.1 82.1"/><polygon class="cls-2" points="0.1 118.7 29.2 118.7 29.2 81.3 0.1 81.3 0.1 82.8 27.7 82.8 27.7 117.3 0.1 117.3 0.1 118.7"/><path class="cls-3" d="M87.5,115.4c1.9,0,3.4-1.8,3.4-4a3.63,3.63,0,0,0-3.4-3.9h7c1.9,0,3.4-1.8,3.4-4s-1.5-4-3.4-4h3.2c1.9,0,3.4-1.8,3.4-4s-1.5-4-3.4-4l-27.9-.1H94.2c1.9,0,3.4-1.8,3.4-4s-1.5-4-3.4-4H55.1L68.8,69.8a4.51,4.51,0,0,0,0-5.6,3.27,3.27,0,0,0-4.8,0l-6.5,4.6L36.8,83.5a20.18,20.18,0,0,0-4.6,6H29.1l.1,22.6h3.5a4.73,4.73,0,0,0,2.6,2.6C38.4,115.5,87.5,115.4,87.5,115.4Z"/><path class="cls-4" d="M88.8,107.8h-43C36.4,106.9,32,99.1,32,90.9a7.57,7.57,0,0,1,.1-1.5h-3l.1,22.6h3.5a4.73,4.73,0,0,0,2.6,2.6c3.1,1,52.2.8,52.2.8,1.9,0,3.4-1.8,3.4-4A4.11,4.11,0,0,0,88.8,107.8Z"/><path class="cls-2" d="M78.4,116.1h9.1c2.3,0,4.1-2.1,4.1-4.7a4.69,4.69,0,0,0-1.1-3.1h3.9c2.3,0,4.1-2.1,4.1-4.7a4.79,4.79,0,0,0-1.2-3.3h.3c2.3,0,4.1-2.1,4.1-4.7s-1.8-4.7-4.1-4.7H97a5.32,5.32,0,0,0,1.2-3.3c0-2.6-1.8-4.7-4.1-4.7H56.9L69.3,70.5a5.14,5.14,0,0,0,0-6.6,3.72,3.72,0,0,0-2.8-1.3,4.07,4.07,0,0,0-3,1.2L36.3,83.1a21.22,21.22,0,0,0-4.6,5.8H29.1v1.5h3.6l.2-.5c1.1-2.7,4-5.4,4.3-5.7L64.4,64.9l.1-.1a2.63,2.63,0,0,1,2-.8,2,2,0,0,1,1.7.8,3.76,3.76,0,0,1,0,4.7L53.3,84.1H94.2c1.4,0,2.6,1.5,2.6,3.2a3,3,0,0,1-2.6,3.2H69v.7a.62.62,0,0,0,.7.7h4.4l23.6.1c1.5,0,2.6,1.5,2.6,3.2a3,3,0,0,1-2.6,3.2H69.2v.7c0,.5.2.7.7.7H94.5c1.4,0,2.6,1.5,2.6,3.2a3,3,0,0,1-2.6,3.2H69.3v.7a.63.63,0,0,0,.7.7H87.6a2.85,2.85,0,0,1,2.6,3.1,3,3,0,0,1-2.6,3.2c-19.7.1-49.8-.1-51.9-.8a4.28,4.28,0,0,1-2.2-2.2l-.2-.4H29.4V112h3a5.17,5.17,0,0,0,2.8,2.5C37.4,116,63.8,116.1,78.4,116.1Z"/><path class="cls-5" d="M174,46.2a2.8,2.8,0,1,1,0-5.6,2.8,2.8,0,1,1,0,5.6Zm0-4.2a1.3,1.3,0,1,0,1.3,1.3A1.32,1.32,0,0,0,174,42Z"/><polygon class="cls-6" points="220.8 125.4 203.2 107.6 203.2 0.7 220.8 18.5 220.8 125.4"/><path class="cls-6" d="M203.2,107.6l16.9,17.1H62.1L45,107.4Z"/><path class="cls-2" d="M221.6,126.2h-1.1l-18.1-18.3V0h1.5l17.7,18.3V126.2Zm-17.7-18.9,16.2,16.3V18.9L203.9,2.6Z"/><rect class="cls-6" x="44.2" y="0.7" width="159" height="106.9"/><path class="cls-2" d="M203.9,108.4H43.4V0H203.9Zm-159-1.5H202.4V1.5H44.9Z"/><rect class="cls-5" x="145.9" y="73.3" width="40.6" height="2.2"/><rect class="cls-5" x="145.9" y="77.5" width="40.6" height="2.2"/><rect class="cls-5" x="145.9" y="82" width="20.3" height="2.2"/><rect class="cls-7" x="145.9" y="88.8" width="0.9" height="7"/><rect class="cls-7" x="147.7" y="88.8" width="1.2" height="7"/><rect class="cls-7" x="150.4" y="88.8" width="0.8" height="7"/><rect class="cls-7" x="151.8" y="88.8" width="0.8" height="7"/><rect class="cls-7" x="154" y="88.8" width="1.2" height="7"/><rect class="cls-7" x="156.9" y="88.8" width="1.2" height="7"/><rect class="cls-7" x="158.5" y="88.8" width="0.8" height="7"/><rect class="cls-7" x="159.9" y="88.8" width="0.8" height="7"/><rect class="cls-7" x="162.2" y="88.8" width="0.9" height="7"/><rect class="cls-7" x="163.9" y="88.8" width="1.2" height="7"/><rect class="cls-7" x="166.7" y="88.8" width="0.8" height="7"/><rect class="cls-7" x="168.1" y="88.8" width="0.8" height="7"/><rect class="cls-7" x="170.3" y="88.8" width="0.9" height="7"/><rect class="cls-7" x="171.9" y="88.8" width="1.2" height="7"/><polygon class="cls-5" points="52.5 26 51 26 51 8.1 66.9 8.1 66.9 9.6 52.5 9.6 52.5 26"/><polygon class="cls-2" points="203.5 0.1 203 0.1 203 1.6 220.1 18.9 220.1 124.7 62.1 124.7 56.1 118.6 54.3 118.6 54.3 117.1 54.6 117.1 51.1 113.6 49.1 113.6 49.1 112.1 49.6 112.1 45 107.4 45 107.2 43.6 107.2 43.4 108.4 61.5 126.2 221.6 126.2 221.6 18.2 203.5 0.1"/><polygon class="cls-5" points="72.3 113.6 72.3 112.1 49.6 112.1 51.1 113.6 72.3 113.6"/><polygon class="cls-2" points="49.1 113.6 51.1 113.6 49.6 112.1 49.1 112.1 49.1 113.6"/><polygon class="cls-5" points="87.6 118.6 87.6 117.1 54.6 117.1 56.1 118.6 87.6 118.6"/><polygon class="cls-2" points="54.3 118.6 56.1 118.6 54.6 117.1 54.3 117.1 54.3 118.6"/><rect class="cls-5" x="76.7" y="112.1" width="5.8" height="1.5"/><rect class="cls-5" x="51" y="30.7" width="1.5" height="5.8"/><path class="cls-2" d="M220.1,125.6l-8.8-45.5v-35l9.3-27.9h0l1.1,1V125.5Zm-7.4-45.7,7.3,37.8V23.1l-7.3,22.2Z"/><path class="cls-2" d="M203.6,108.6l-1.2-.5V.7l1.5-.1,8.8,44.5v35L203.5,109Zm.3-100.3v94.6l7.3-23V45.3Z"/><polygon class="cls-5" points="196.3 25.9 194.9 25.9 194.9 9.5 180.5 9.5 180.5 8 196.3 8 196.3 25.9"/><rect class="cls-5" x="194.9" y="30.5" width="1.5" height="5.8"/><rect class="cls-5" x="51" y="82.4" width="1.5" height="17.2"/><rect class="cls-5" x="51" y="71.9" width="1.5" height="5.8"/><polyline class="cls-1" points="0 140.9 28.5 140.9 28.5 105 0 105"/><polygon class="cls-2" points="0 141.7 29.2 141.7 29.2 104.2 0 104.2 0 105.7 27.7 105.7 27.7 140.2 0 140.2 0 141.7"/><path class="cls-3" d="M87.5,138.3c1.9,0,3.4-1.8,3.4-4a3.63,3.63,0,0,0-3.4-3.9h7c1.9,0,3.4-1.8,3.4-4s-1.5-4-3.4-4h3.2c1.9,0,3.4-1.8,3.4-4s-1.5-4-3.4-4l-27.9-.1H94.2c1.9,0,3.4-1.8,3.4-4s-1.5-4-3.4-4H55.1L68.8,92.7a4.51,4.51,0,0,0,0-5.6,3.27,3.27,0,0,0-4.8,0l-6.5,4.6L36.8,106.4a20.18,20.18,0,0,0-4.6,6H29.1l.1,22.6h3.5a4.73,4.73,0,0,0,2.6,2.6C38.4,138.5,87.5,138.3,87.5,138.3Z"/><path class="cls-4" d="M88.8,130.7h-43C36.4,129.8,32,122,32,113.8a7.57,7.57,0,0,1,.1-1.5h-3l.1,22.6h3.5a4.73,4.73,0,0,0,2.6,2.6c3.1,1,52.2.8,52.2.8,1.9,0,3.4-1.8,3.4-4A4.11,4.11,0,0,0,88.8,130.7Z"/><path class="cls-2" d="M78.4,139h9.1c2.3,0,4.1-2.1,4.1-4.7a4.69,4.69,0,0,0-1.1-3.1h3.9c2.3,0,4.1-2.1,4.1-4.7a4.79,4.79,0,0,0-1.2-3.3h.3c2.3,0,4.1-2.1,4.1-4.7s-1.8-4.7-4.1-4.7H97a5.32,5.32,0,0,0,1.2-3.3c0-2.6-1.8-4.7-4.1-4.7H56.9L69.3,93.4a5.14,5.14,0,0,0,0-6.6,3.72,3.72,0,0,0-2.8-1.3,3.92,3.92,0,0,0-3,1.2L36.3,106a21.22,21.22,0,0,0-4.6,5.8H29.1v1.5h3.6l.2-.5c1.1-2.7,4-5.4,4.3-5.7L64.4,87.8l.1-.1a2.63,2.63,0,0,1,2-.8,2,2,0,0,1,1.7.8,3.76,3.76,0,0,1,0,4.7L53.3,107.1H94.2c1.4,0,2.6,1.5,2.6,3.2a3,3,0,0,1-2.6,3.2H69v.7a.62.62,0,0,0,.7.7h4.4l23.6.1c1.5,0,2.6,1.5,2.6,3.2a3,3,0,0,1-2.6,3.2H69.2v.7c0,.5.2.7.7.7H94.5c1.4,0,2.6,1.5,2.6,3.2a3,3,0,0,1-2.6,3.2H69.3v.7a.63.63,0,0,0,.7.7H87.6a2.85,2.85,0,0,1,2.6,3.1,3,3,0,0,1-2.6,3.2c-19.7.1-49.8-.1-51.9-.8a4.28,4.28,0,0,1-2.2-2.2l-.2-.4H29.4V135h3a5.17,5.17,0,0,0,2.8,2.5C37.4,138.9,63.8,139,78.4,139Z"/></g></g></svg>