<svg xmlns="http://www.w3.org/2000/svg" viewBox="0 0 149.42 78.5"><defs><style>.cls-1{fill:#484a7d;}.cls-2{fill:#00c2de;}.cls-3{fill:#fed6c0;}.cls-4{fill:#fcc6b1;}.cls-5{fill:#650001;}</style></defs><title>mano2</title><g id="Capa_2" data-name="Capa 2"><g id="Capa_1-2" data-name="Capa 1"><polyline class="cls-1" points="149.32 55.1 72.6 55.1 72.6 19.5 149.42 19.5"/><polygon class="cls-2" points="149.32 55.8 71.9 55.8 71.9 18.8 149.42 18.8 149.42 20.2 73.3 20.2 73.3 54.3 149.32 54.3 149.32 55.8"/><path class="cls-3" d="M14.2,52.4c-1.8,0-3.3-1.8-3.3-3.9s1.5-3.9,3.3-3.9H7.3C5.5,44.6,4,42.8,4,40.7s1.5-3.9,3.3-3.9H4.1C2.3,36.8.8,35,.8,32.9S2.3,29,4.1,29l27.6-.1H7.5c-1.8,0-3.3-1.8-3.3-3.9s1.5-3.9,3.3-3.9H46.1L32.6,7.6a4.51,4.51,0,0,1,0-5.6,3.23,3.23,0,0,1,4.7,0l6.4,4.5L64.2,21s3.3,2.9,4.5,5.9h3l-.1,22.3H68.2a4.27,4.27,0,0,1-2.6,2.5C62.8,52.6,14.2,52.4,14.2,52.4Z"/><path class="cls-4" d="M12.9,44.9H55.4C64.7,44,69,36.3,69,28.2a7.57,7.57,0,0,0-.1-1.5h2.9L71.7,49H68.3a4.27,4.27,0,0,1-2.6,2.5c-3,1-51.6.8-51.6.8-1.8,0-3.3-1.8-3.3-3.9A4.21,4.21,0,0,1,12.9,44.9Z"/><path class="cls-2" d="M23.2,53.2h-9c-2.2,0-4.1-2.1-4.1-4.7a4.69,4.69,0,0,1,1.1-3.1H7.4c-2.2,0-4.1-2.1-4.1-4.7a4.77,4.77,0,0,1,1.1-3.2H4.1C1.9,37.5,0,35.4,0,32.8s1.8-4.7,4.1-4.7h.6a5.1,5.1,0,0,1-1.2-3.3c0-2.6,1.8-4.7,4.1-4.7H44.5L32.2,7.8a5.26,5.26,0,0,1,0-6.5A3.72,3.72,0,0,1,35,0a4.07,4.07,0,0,1,3,1.2L64.9,20.3A20.52,20.52,0,0,1,69.4,26H72v1.5H68.5l-.2-.5c-1.1-2.7-4-5.3-4.3-5.6L37.1,2.3,37,2.2a2.56,2.56,0,0,0-1.9-.8,2,2,0,0,0-1.7.8,3.62,3.62,0,0,0,0,4.6L48.1,21.5H7.7a3,3,0,0,0-2.6,3.2,3,3,0,0,0,2.6,3.2H32.5v.7a.62.62,0,0,1-.7.7H27.5l-23.3.1a3,3,0,0,0-2.6,3.2,3,3,0,0,0,2.6,3.2H32.4v.7c0,.5-.2.7-.7.7H7.4a3,3,0,0,0-2.6,3.2,3,3,0,0,0,2.6,3.2H32.3v.7a.63.63,0,0,1-.7.7H14.2a2.85,2.85,0,0,0-2.6,3.1,3,3,0,0,0,2.6,3.2c19.5.1,49.2-.1,51.4-.8a3.9,3.9,0,0,0,2.1-2.1l.2-.4h3.9v1.5h-3A4.86,4.86,0,0,1,66,52C63.7,53.1,37.7,53.2,23.2,53.2Z"/><polyline class="cls-1" points="149.42 77.7 72.6 77.7 72.6 42.2 149.42 42.2"/><path class="cls-3" d="M14.2,75.1c-1.8,0-3.3-1.8-3.3-3.9s1.5-3.9,3.3-3.9H7.3C5.5,67.3,4,65.5,4,63.4s1.5-3.9,3.3-3.9H4.1C2.3,59.5.8,57.7.8,55.6s1.5-3.9,3.3-3.9l27.6-.1H7.5c-1.8,0-3.3-1.8-3.3-3.9s1.5-3.9,3.3-3.9H46.1L32.6,30.3a4.51,4.51,0,0,1,0-5.6,3.23,3.23,0,0,1,4.7,0l6.4,4.5L64.2,43.7s3.3,2.9,4.5,5.9h3l-.1,22.3H68.2a4.27,4.27,0,0,1-2.6,2.5C62.8,75.3,14.2,75.1,14.2,75.1Z"/><path class="cls-4" d="M12.9,67.6H55.4C64.7,66.7,69,59,69,50.9a7.57,7.57,0,0,0-.1-1.5h2.9l-.1,22.3H68.3a4.27,4.27,0,0,1-2.6,2.5c-3,1-51.6.8-51.6.8-1.8,0-3.3-1.8-3.3-3.9A4.07,4.07,0,0,1,12.9,67.6Z"/><polygon class="cls-5" points="149.42 78.5 71.9 78.5 71.9 41.5 149.42 41.5 149.42 42.9 73.3 42.9 73.3 77 149.42 77 149.42 78.5"/><polygon class="cls-2" points="149.42 78.5 71.9 78.5 71.9 41.5 149.42 41.5 149.42 42.9 73.3 42.9 73.3 77 149.42 77 149.42 78.5"/><path class="cls-2" d="M23.2,75.9h-9c-2.2,0-4.1-2.1-4.1-4.7a4.69,4.69,0,0,1,1.1-3.1H7.4c-2.2,0-4.1-2.1-4.1-4.7a4.77,4.77,0,0,1,1.1-3.2H4.1C1.9,60.2,0,58.1,0,55.5s1.8-4.7,4.1-4.7h.6a5.1,5.1,0,0,1-1.2-3.3c0-2.6,1.8-4.7,4.1-4.7H44.5L32.2,30.5a5.26,5.26,0,0,1,0-6.5A3.72,3.72,0,0,1,35,22.7a4.07,4.07,0,0,1,3,1.2L64.9,43a20.52,20.52,0,0,1,4.5,5.7H72v1.5H68.5l-.2-.5c-1.1-2.7-4-5.3-4.3-5.6L37.1,25l-.1-.1a2.56,2.56,0,0,0-1.9-.8,2,2,0,0,0-1.7.8,3.62,3.62,0,0,0,0,4.6L48.1,44.2H7.7a3,3,0,0,0-2.6,3.2,3,3,0,0,0,2.6,3.2H32.6v.7a.62.62,0,0,1-.7.7H27.6l-23.3.1a3.27,3.27,0,0,0,0,6.4H32.4v.7c0,.5-.2.7-.7.7H7.4a3.27,3.27,0,0,0,0,6.4H32.3V67a.63.63,0,0,1-.7.7H14.2a2.85,2.85,0,0,0-2.6,3.1A3,3,0,0,0,14.2,74c19.5.1,49.2-.1,51.4-.8a3.9,3.9,0,0,0,2.1-2.1l.2-.4h3.9v1.5h-3A4.86,4.86,0,0,1,66,74.7C63.7,75.8,37.6,75.9,23.2,75.9Z"/></g></g></svg>