<svg xmlns="http://www.w3.org/2000/svg" viewBox="0 0 6.33 7.18"><defs><style>.cls-1{fill:#fff;fill-rule:evenodd;}</style></defs><title>Recurso 6</title><g id="Capa_2" data-name="Capa 2"><g id="_ÎÓÈ_1" data-name="—ÎÓÈ 1"><path class="cls-1" d="M3.37,6.55a1.65,1.65,0,1,0,1.8-2.69L5,3.8H5A1.65,1.65,0,0,0,2.89,5.39,1.64,1.64,0,0,0,3,6l0,0H3a1.65,1.65,0,0,0,.34.49Zm.56-3.13a.07.07,0,1,1,0,.14H1.7a.07.07,0,1,1,0-.14Zm-.86.94A1.79,1.79,0,0,0,2.86,6H.66V.75H1.5V1a.07.07,0,0,0,.07.07H3.49A.07.07,0,0,0,3.56,1V.75H4.4V3.6a1.79,1.79,0,0,0-1.13.52l-.08.09H1.7a.07.07,0,1,0,0,.14Zm.86-1.68H1.7a.07.07,0,1,0,0,.14H3.93a.07.07,0,1,0,0-.14Zm0-.75H1.7a.07.07,0,1,0,0,.14H3.93a.07.07,0,1,0,0-.14ZM3.24,6.62H.43A.43.43,0,0,1,0,6.19V.58A.43.43,0,0,1,.43.15H1.5V.07A.07.07,0,0,1,1.58,0H3.49a.07.07,0,0,1,.07.07V.15H4.63a.43.43,0,0,1,.43.43V3.67l.16.06a1.79,1.79,0,1,1-2,2.89Zm1.68-3V.58A.29.29,0,0,0,4.63.3H3.56V.61h.92a.07.07,0,0,1,.07.07V3.59a1.8,1.8,0,0,1,.37,0Zm-2,2.52a1.81,1.81,0,0,0,.19.31H.43a.29.29,0,0,1-.29-.29V.58A.29.29,0,0,1,.43.3H1.5V.61H.59A.07.07,0,0,0,.52.68V6.09a.07.07,0,0,0,.07.07ZM4.42,5a.07.07,0,0,1,.14,0l0,.24.85-.85a.07.07,0,1,1,.1.1l-.89.89.1.07a.07.07,0,1,1-.09.12l0,0L4.79,6.7a.07.07,0,1,1-.14,0L4.49,5.55l-.15.15a.07.07,0,0,1-.1-.1l.19-.19-.81-.6a.07.07,0,1,1,.09-.12l.73.55,0-.21ZM1.08,2.07h.22a.07.07,0,0,0,0-.14H1.08a.07.07,0,1,0,0,.14Zm0,.75h.22a.07.07,0,1,0,0-.14H1.08a.07.07,0,1,0,0,.14Zm0,.75h.22a.07.07,0,1,0,0-.14H1.08a.07.07,0,1,0,0,.14Zm0,.79h.22a.07.07,0,0,0,0-.14H1.08a.07.07,0,1,0,0,.14ZM1.65.91H3.41V.14H1.65Z"/></g></g></svg>