<svg xmlns="http://www.w3.org/2000/svg" viewBox="0 0 713.46 449.33"><defs><style>.cls-1{fill:#00c2de;}.cls-2{fill:#fff;}.cls-3{fill:#484a7d;}.cls-4{fill:#ffe35f;}.cls-5{fill:#f25a5a;}.cls-6{fill:#231f20;}.cls-7{fill:#ff7074;}.cls-8{fill:#650001;}.cls-9{fill:#c14040;}.cls-10{fill:#fed6c0;}</style></defs><title>pickpack</title><g id="Capa_2" data-name="Capa 2"><g id="Secondary_shapes" data-name="Secondary shapes"><path class="cls-1" d="M522,173.32H158.94a11.7,11.7,0,0,0-11.47,11.47v241h386v-241A11.7,11.7,0,0,0,522,173.32Z"/><path class="cls-1" d="M535,427.3H146V184.79a13.14,13.14,0,0,1,12.94-13H522.06A13.14,13.14,0,0,1,535,184.76Zm-386-3H532V184.79a10.14,10.14,0,0,0-10-10H158.94a10.14,10.14,0,0,0-10,10Z"/><rect class="cls-2" x="164.77" y="191.19" width="350.71" height="220.41"/><path class="cls-2" d="M583.11,425.8H83.94v11.76s.2,1.14,3,1.42c2.36.24,6,.23,6,.23H586.61s3.63,0,6-.23c2.79-.28,3-1.42,3-1.42V425.8Z"/><path class="cls-1" d="M369.28,433.61H311.69c-4.8,0-7-3.33-7-6.43v-2.67h71.55v2.67C376.26,430.28,374.08,433.61,369.28,433.61Zm-61.56-6.09c.14,1.5,1.23,3.09,4,3.09h57.59c2.73,0,3.83-1.6,4-3.09Z"/><path class="cls-3" d="M364.22,439.2H85.67s9.21,5.86,11.2,7.07a11.19,11.19,0,0,0,5.24,1.55H577.33a11.19,11.19,0,0,0,5.24-1.55c2-1.21,11.2-7.07,11.2-7.07Z"/><circle class="cls-4" cx="176.01" cy="79.04" r="54.67"/><path class="cls-5" d="M176,135.21A56.17,56.17,0,1,1,232.17,79,56.23,56.23,0,0,1,176,135.21Zm0-109.33A53.17,53.17,0,1,0,229.17,79,53.23,53.23,0,0,0,176,25.87Z"/><circle class="cls-2" cx="176.01" cy="78.89" r="38.54"/><path class="cls-3" d="M109.17,79h-3A69.83,69.83,0,0,1,176,9.21v3A66.83,66.83,0,0,0,109.17,79Z"/><path class="cls-5" d="M176,118.93c-.77,0-1.57,0-2.53-.09l-.71-.05q-1-.08-1.91-.2l-.63-.08c-.86-.12-1.65-.26-2.41-.42l-.4-.09q-1-.22-2-.49l-.67-.19q-1-.28-1.91-.61l-.42-.14c-.74-.27-1.49-.57-2.24-.89l-.48-.22q-.89-.4-1.75-.83l-.56-.29c-.77-.41-1.44-.78-2.05-1.15s-1.33-.83-2.06-1.34l-.46-.32q-.8-.57-1.57-1.17l-.4-.32c-.68-.55-1.28-1.07-1.85-1.59l-.07-.07c-.56-.52-1.11-1.06-1.64-1.61l-.34-.35c-.52-.55-1-1.07-1.44-1.61l-.21-.25c-.53-.63-1-1.28-1.52-1.93l-.19-.26q-.62-.86-1.2-1.75l-.28-.44a40,40,0,1,1,69.12-40.35c.63,1.17,1.19,2.33,1.68,3.5l.05.13c.24.57.46,1.12.66,1.68l.12.34c.18.5.35,1,.51,1.52,0,.14.08.28.12.42l.14.48c.1.33.19.66.28,1l.07.3,0,.18c.12.51.24,1,.34,1.46l0,.15c.12.63.23,1.22.32,1.82.06.38.1.75.15,1.13l.06.46c0,.14,0,.27.05.41s0,.5.06.76l0,.31c.09,1.14.13,2.1.13,3A40.09,40.09,0,0,1,176,118.93Zm0-77.08a37,37,0,0,0-31.37,56.72l.26.4q.53.83,1.11,1.62l.17.24c.45.6.92,1.21,1.41,1.79l.19.22q.63.74,1.3,1.45l.35.36c.5.51,1,1,1.53,1.49s1.15,1,1.78,1.53l.37.29q.71.56,1.45,1.09l.42.3c.68.47,1.3.87,1.88,1.23s1.28.74,1.92,1.08l.52.27q.8.4,1.61.77l.45.2c.69.3,1.39.58,2.07.82l.39.13q.87.3,1.76.56l.62.18q.91.25,1.85.46l.37.08c.71.15,1.44.27,2.23.39l.59.07q.87.11,1.77.18l.66.05c.89.06,1.63.08,2.34.08a37.08,37.08,0,0,0,37-37c0-.85,0-1.74-.12-2.8h0l0-.33c0-.22,0-.44-.05-.65s0-.21,0-.31l-.06-.51c0-.34-.08-.69-.13-1-.08-.55-.19-1.1-.29-1.64l0-.13c-.1-.49-.2-.92-.31-1.36l-.11-.48c-.08-.3-.17-.6-.25-.9l-.15-.53-.09-.33c-.15-.47-.31-.94-.47-1.4l-.11-.32c-.19-.52-.39-1-.61-1.54l0-.12q-.7-1.66-1.55-3.23A37.06,37.06,0,0,0,176,41.85Z"/><circle class="cls-5" cx="176.01" cy="49.11" r="2.19"/><circle class="cls-5" cx="146.22" cy="78.89" r="2.19"/><circle class="cls-5" cx="176.01" cy="108.68" r="2.19"/><circle class="cls-5" cx="205.79" cy="78.89" r="2.19"/><rect class="cls-5" x="173.82" y="58.95" width="4.37" height="21.87"/><rect class="cls-5" x="185.95" y="71.51" width="4.37" height="30.55" transform="translate(18.92 206.32) rotate(-60)"/><path class="cls-4" d="M692.39,199.68v-9.47h-6.66a23.8,23.8,0,0,0-3.38-8.32l4.72-4.81-6.57-6.7-4.72,4.81a22.83,22.83,0,0,0-8.16-3.45v-6.8h-9.28v6.8a22.83,22.83,0,0,0-8.16,3.45l-4.72-4.81-6.57,6.7,4.72,4.81a23.79,23.79,0,0,0-3.38,8.32h-6.66v9.47h6.66a23.79,23.79,0,0,0,3.38,8.32l-4.72,4.81,6.57,6.7,4.72-4.81a22.83,22.83,0,0,0,8.16,3.45v6.8h9.28v-6.8a22.83,22.83,0,0,0,8.16-3.45l4.72,4.81,6.57-6.7L682.34,208a23.8,23.8,0,0,0,3.38-8.32Zm-28.85,1.54a6.43,6.43,0,1,1,6.3-6.43A6.37,6.37,0,0,1,663.54,201.22Z"/><path class="cls-1" d="M669.12,226.44H656.84v-7.11a24.21,24.21,0,0,1-6.44-2.72l-4.93,5-8.67-8.84,4.92-5a25.13,25.13,0,0,1-2.69-6.61h-7V188.71h7a25.14,25.14,0,0,1,2.69-6.61l-4.92-5,8.67-8.84,4.93,5a24.18,24.18,0,0,1,6.44-2.72v-7.11h12.29v7.11a24.18,24.18,0,0,1,6.44,2.72l4.94-5,8.67,8.84-4.92,5a25.14,25.14,0,0,1,2.69,6.61h7v12.47h-7a25.14,25.14,0,0,1-2.69,6.61l4.92,5-8.67,8.84-4.94-5a24.2,24.2,0,0,1-6.44,2.72Zm-9.29-3h6.29v-6.52l1.2-.25a21.25,21.25,0,0,0,7.62-3.23l1-.7,4.52,4.61,4.46-4.55-4.53-4.62.65-1a22.21,22.21,0,0,0,3.17-7.79l.24-1.21h6.4v-6.47h-6.4l-.24-1.21a22.21,22.21,0,0,0-3.17-7.79l-.65-1,4.53-4.62-4.46-4.55L676,177.13l-1-.7a21.24,21.24,0,0,0-7.62-3.23l-1.2-.25v-6.52h-6.29V173l-1.2.25a21.24,21.24,0,0,0-7.62,3.23l-1,.7-4.52-4.61L641,177.08l4.53,4.62-.65,1a22.21,22.21,0,0,0-3.17,7.79l-.24,1.21h-6.4v6.47h6.4l.24,1.21a22.21,22.21,0,0,0,3.17,7.79l.65,1L641,212.81l4.46,4.55,4.52-4.61,1,.7a21.26,21.26,0,0,0,7.62,3.23l1.2.25Zm3.7-20.72a7.93,7.93,0,1,1,7.8-7.93A7.88,7.88,0,0,1,663.54,202.72Zm0-12.86a4.93,4.93,0,1,0,4.8,4.93A4.87,4.87,0,0,0,663.54,189.86Z"/><path class="cls-3" d="M692.6,300.81c.33,0,.67-.05,1-.05h-1Z"/><rect class="cls-3" x="635.79" y="310.34" width="7.82" height="3.62"/><rect class="cls-3" x="647.43" y="310.34" width="7.82" height="3.62"/><rect class="cls-3" x="659.07" y="310.34" width="7.82" height="3.62"/><rect class="cls-3" x="670.72" y="310.34" width="7.82" height="3.62"/><rect class="cls-3" x="682.36" y="310.34" width="7.82" height="3.62"/><rect class="cls-3" x="694" y="310.34" width="7.82" height="3.62"/><rect class="cls-3" x="705.64" y="310.34" width="7.82" height="3.62"/><rect class="cls-3" x="644" y="289.27" width="60" height="3"/><rect class="cls-3" x="1.34" y="252.15" width="7.82" height="3.62"/><rect class="cls-3" x="12.98" y="252.15" width="7.82" height="3.62"/><rect class="cls-3" x="24.62" y="252.15" width="7.82" height="3.62"/><rect class="cls-3" x="36.27" y="252.15" width="7.82" height="3.62"/><rect class="cls-3" x="47.91" y="252.15" width="7.82" height="3.62"/><rect class="cls-3" x="59.56" y="252.15" width="7.82" height="3.62"/><rect class="cls-3" x="71.2" y="252.15" width="7.82" height="3.62"/><rect class="cls-3" x="258.69" y="104.7" width="3" height="7" transform="translate(-0.3 215.67) rotate(-45)"/><rect class="cls-3" x="256.69" y="126.25" width="7" height="3" transform="translate(-14.12 221.41) rotate(-45)"/><rect class="cls-3" x="275.87" y="106.43" width="7" height="3" transform="translate(5.51 229.16) rotate(-45)"/><rect class="cls-3" x="268.12" y="100.61" width="3" height="7"/><rect class="cls-3" x="252.7" y="116.55" width="7" height="3"/><rect class="cls-3" x="278.24" y="123.78" width="3" height="7" transform="translate(-8.07 235.09) rotate(-45)"/><rect class="cls-3" x="280.06" y="116.03" width="7" height="3"/><rect class="cls-3" x="267.96" y="128.61" width="3" height="7"/><path class="cls-2" d="M73.57,336.66A17.47,17.47,0,0,1,91,319.19h18a17.47,17.47,0,0,1,0,34.94H99l-9.32,9.32v-9.32h0C81.18,353.81,73.57,346.31,73.57,336.66Z"/><path class="cls-1" d="M88.16,367.07V355.51c-9-1.11-16.09-9.26-16.09-18.85a19,19,0,0,1,19-19h18a19,19,0,1,1,0,37.94H99.6ZM91,320.69a16,16,0,0,0-16,16c0,8.5,6.57,15.67,14.64,16l1.44.05v7.14l7.2-7.2H109a16,16,0,1,0,0-31.94Z"/><rect class="cls-1" x="98.54" y="319.8" width="3" height="26.82" transform="translate(-233.63 431.72) rotate(-89.74)"/><rect class="cls-1" x="98.54" y="327.18" width="3" height="26.82" transform="translate(-241 439.07) rotate(-89.74)"/><path class="cls-4" d="M76.48,371a24.75,24.75,0,0,1-24.75,24.75H26.25a24.75,24.75,0,1,1,0-49.5H40.49l13.2-13.2v13.2h0C65.7,346.73,76.48,357.36,76.48,371Z"/><path class="cls-1" d="M51.73,397.27H26.25a26.25,26.25,0,0,1,0-52.5H39.87l15.32-15.32v15.42C67.88,346.14,78,357.56,78,371A26.28,26.28,0,0,1,51.73,397.27Zm-25.48-49.5a23.25,23.25,0,0,0,0,46.5H51.73A23.28,23.28,0,0,0,75,371c0-12.38-9.58-22.81-21.35-23.25l-1.44-.05v-11L41.11,347.78Z"/><rect class="cls-1" x="37.49" y="356.91" width="3" height="38" transform="translate(-337.1 413.18) rotate(-89.74)"/><rect class="cls-1" x="37.49" y="346.46" width="3" height="38" transform="translate(-326.64 402.78) rotate(-89.74)"/><path class="cls-3" d="M284,53.57l-1.38-5.84H276l-1.64,5.76-1.4-.34a26.69,26.69,0,0,1-8.36-3.66l-1.16-.76,2.8-5.06L261.62,39l-4.71,2.91-.78-1.32a26.83,26.83,0,0,1-3.23-8.48l-.27-1.35,5.05-1.45v-6.6l-4.84-1.16.37-1.47a27,27,0,0,1,3.7-8.28l.79-1.19,3.8,2.28,4.65-4.67-2.09-3.77,1.22-.75A26.71,26.71,0,0,1,273.47.36L274.86,0,276,4.17h6.56l1-4.17,1.42.31a26.69,26.69,0,0,1,8.23,3.29l1.27.77L292.28,8.2l4.65,4.67,4.67-2.61.74,1.29A35.8,35.8,0,0,1,305.52,20l.37,1.46-4.83,1.22v6.62l5.05,1.5-.27,1.34a27,27,0,0,1-3.23,8.4l-.74,1.26-5-2.81-4.64,4.66,3.11,5.07-1.22.8a26.57,26.57,0,0,1-8.65,3.69Zm-10.21-8.84H285l1.23,5.21a23.54,23.54,0,0,0,5-2.13l-2.8-4.56,7.91-7.95,4.43,2.47a23.87,23.87,0,0,0,1.86-4.85l-4.54-1.34V20.37l4.16-1.05a34.57,34.57,0,0,0-1.81-5l-4,2.23-7.89-7.93,1.92-3.23a23.65,23.65,0,0,0-4.6-1.84l-.9,3.58H273.77l-1-3.53a23.71,23.71,0,0,0-4.65,1.89l1.77,3.2L262,16.66l-3.32-2a23.91,23.91,0,0,0-2.11,4.68l4.14,1V31.57l-4.54,1.3A23.85,23.85,0,0,0,258,37.73l4.09-2.53,7.91,8-2.53,4.56a23.66,23.66,0,0,0,4.85,2.14Zm5.61-5.05a12.9,12.9,0,1,1,12.86-12.9A12.89,12.89,0,0,1,279.37,39.67Zm0-22.8a9.9,9.9,0,1,0,9.86,9.9A9.89,9.89,0,0,0,279.37,16.87Z"/><rect class="cls-3" x="642.31" y="103.78" width="3" height="13.6" transform="translate(110.37 487.63) rotate(-45)"/><rect class="cls-3" x="637.39" y="109.47" width="13.6" height="3" transform="translate(110.22 488.01) rotate(-45)"/><path class="cls-3" d="M74,107.27a6.5,6.5,0,1,1,6.5-6.5A6.51,6.51,0,0,1,74,107.27Zm0-10a3.5,3.5,0,1,0,3.5,3.5A3.5,3.5,0,0,0,74,97.27Z"/><path class="cls-3" d="M621.86,354.8a6.5,6.5,0,1,1,6.5-6.5A6.51,6.51,0,0,1,621.86,354.8Zm0-10a3.5,3.5,0,1,0,3.5,3.5A3.5,3.5,0,0,0,621.86,344.8Z"/><rect class="cls-3" x="30.94" y="292.57" width="3" height="13.6" transform="translate(-202.18 110.62) rotate(-45)"/><rect class="cls-3" x="26.03" y="298.25" width="13.6" height="3" transform="translate(-202.34 111.01) rotate(-45)"/><rect class="cls-3" x="62.99" y="273.87" width="60" height="3"/><polyline class="cls-3" points="164.92 305.36 345.12 305.36 345.12 232.83 164.78 232.83"/><polygon class="cls-1" points="164.75 231.33 164.75 234.33 343.62 234.33 343.62 303.86 164.78 303.86 164.78 306.86 346.62 306.86 346.62 231.33 164.75 231.33"/><path class="cls-6" d="M423,142a5.51,5.51,0,1,1,5.83-5.5A5.68,5.68,0,0,1,423,142Zm0-8a2.52,2.52,0,1,0,2.83,2.5A2.68,2.68,0,0,0,423,134Z"/><polygon class="cls-4" points="593.98 46.37 593.98 343.37 556.87 377.37 371.34 352.37 334.23 80.37 371.34 46.37 593.98 46.37"/><path class="cls-5" d="M557.16,379.13,370,353.71l-37.27-274,38-34.84H595.47V344ZM372.67,351l183.7,24.75,36.1-33.08V47.87H371.92l-36.1,33.08Z"/><polygon class="cls-4" points="593.98 46.37 556.87 80.37 334.23 80.37 371.34 46.37 593.98 46.37"/><rect class="cls-4" x="334.23" y="80.37" width="222.63" height="297.26"/><polygon class="cls-5" points="350.93 131.01 347.93 131.01 347.93 93.77 378.57 93.77 378.57 96.77 350.93 96.77 350.93 131.01"/><polygon class="cls-5" points="569.19 367.58 566.19 368.63 566.19 323.94 569.19 323.94 569.19 367.58"/><rect class="cls-5" x="576.71" y="293.83" width="3" height="64.11"/><rect class="cls-5" x="566.19" y="303.54" width="3" height="11.17"/><rect class="cls-5" x="347.93" y="140.74" width="3" height="12.09"/><polygon class="cls-5" points="493.87 47.07 478.65 47.02 442.91 80.63 458.13 80.67 493.87 47.07"/><path class="cls-5" d="M458.72,81.9l-19.58-.06,38.92-36.32,19.58.06Zm-12-2.76,10.85,0L490.1,48.56l-10.85,0Z"/><rect class="cls-5" x="566.19" y="71.12" width="3" height="44.69"/><polygon class="cls-5" points="579.71 125.9 576.71 125.9 576.71 61.78 579.71 61.48 579.71 125.9"/><rect class="cls-5" x="443.4" y="80.37" width="14.3" height="296.62"/><path class="cls-5" d="M459.2,378.49H441.9V78.87h17.3Zm-14.3-3h11.3V81.87H444.9Z"/><rect class="cls-5" x="334" y="196.44" width="222.87" height="15.48"/><path class="cls-5" d="M558.37,213.42H332.73V194.94H558.37Zm-222.87-3H555.37V197.94H335.5Z"/><polygon class="cls-7" points="443.4 224.57 443.4 225.41 443.4 214.23 422.8 214.23 374.01 244.71 382.59 262.86 443.4 224.57"/><polygon class="cls-8" points="459.2 225.56 456.2 225.56 456.2 214.7 444.9 214.7 444.9 225.49 441.9 225.49 441.9 211.7 459.2 211.7 459.2 225.56"/><polygon class="cls-8" points="459.2 213.66 417.57 213.66 425.97 208.41 427.38 210.66 456.2 210.66 456.2 198.16 442.85 197.94 397.65 197.94 397.65 194.94 442.87 194.94 459.2 195.21 459.2 213.66"/><path class="cls-9" d="M450.89,196.25l-71.69-36.18-1.91,4.43a8.14,8.14,0,0,0-2.12,7.75c.61,2.47,3,4.44,5.27,5.53L446.75,209Z"/><path class="cls-8" d="M447.59,211l-67.72-31.85c-3.16-1.48-5.43-3.93-6.08-6.55a9.76,9.76,0,0,1,2.32-9.07l2.4-5.56,74.17,37.43Zm-67.7-48.92-1.43,3.31-.22.21a6.5,6.5,0,0,0-1.7,6.2c.5,2,2.63,3.65,4.46,4.51l64.91,30.53,3.2-9.82Z"/><path class="cls-5" d="M456.3,197.05l-66.2-41.36a6.83,6.83,0,0,0-5.81-1,7.29,7.29,0,0,0-4.37,3.63L375.61,167l-.59,3.8a6.53,6.53,0,0,1,3.25-2.06c1.79-.43,3.55-.18,6.08,1.24l71.95,45Z"/><path class="cls-8" d="M457.7,214,385,168.6c-2.7-1.51-4.81-1.92-7.05-1.38l-.29.08a6.81,6.81,0,0,0-.69.24l4.18-8.48a5.87,5.87,0,0,1,3.5-2.9,5.46,5.46,0,0,1,4.71.87l68.33,42.69v-3.57l-66.87-41.79a8.17,8.17,0,0,0-6.9-1.2,8.82,8.82,0,0,0-5.26,4.39l-4,7.93.25,5.9,1.09.5a5.12,5.12,0,0,1,2.54-1.63c1.14-.28,2.54-.33,5.06,1.07l74.06,46.28Z"/><polygon class="cls-5" points="456.3 189.81 380.73 237.03 387.88 250.43 456.3 207.68 456.3 189.81"/><polygon class="cls-8" points="457.7 205.02 388.4 248.32 382.68 237.59 457.7 190.72 457.7 187.14 378.78 236.46 387.36 252.54 457.7 208.59 457.7 205.02"/><polygon class="cls-7" points="459.31 224.57 459.31 225.41 459.31 214.23 479.9 214.23 528.69 244.71 520.11 262.86 459.31 224.57"/><polygon class="cls-8" points="484.18 213.66 442.55 213.66 442.55 195.21 458.85 194.94 504.1 194.94 504.1 197.94 458.88 197.94 445.55 198.16 445.55 210.66 474.37 210.66 475.78 208.41 484.18 213.66"/><path class="cls-9" d="M450.86,196.25l71.69-36.18,1.91,4.43a8.14,8.14,0,0,1,2.12,7.75c-.61,2.47-3,4.44-5.27,5.53L455,209Z"/><path class="cls-8" d="M449.08,195.44,523.25,158l2.4,5.56a9.76,9.76,0,0,1,2.32,9.07c-.65,2.62-2.92,5.07-6.08,6.55L454.16,211Zm3.56,1.62,3.2,9.82,64.91-30.53c1.83-.86,4-2.49,4.46-4.51a6.5,6.5,0,0,0-1.7-6.2l-.22-.21-1.43-3.31Z"/><path class="cls-5" d="M446.4,197.05l66.2-41.36a6.83,6.83,0,0,1,5.81-1,7.29,7.29,0,0,1,4.37,3.63l4.31,8.71.59,3.8a6.53,6.53,0,0,0-3.25-2.06c-1.79-.43-3.55-.18-6.08,1.24l-71.95,45Z"/><path class="cls-8" d="M444,214l72.69-45.42c2.7-1.51,4.81-1.92,7.05-1.38l.29.08a6.82,6.82,0,0,1,.69.24l-4.18-8.48a5.87,5.87,0,0,0-3.5-2.9,5.46,5.46,0,0,0-4.71.87L444,199.72v-3.57l66.87-41.79a8.17,8.17,0,0,1,6.9-1.2,8.82,8.82,0,0,1,5.26,4.39l4,7.93L528,171l-2.26.83a5.12,5.12,0,0,0-2.54-1.63c-1.14-.28-2.54-.33-5.06,1.07L444,217.59Z"/><polygon class="cls-5" points="445.45 189.81 521.02 237.03 513.87 250.43 445.45 207.68 445.45 189.81"/><polygon class="cls-8" points="445 205.02 514.3 248.32 520.02 237.59 445 190.72 445 188.21 446.14 187.85 523.93 236.46 515.34 252.54 445 208.59 445 205.02"/><rect class="cls-5" x="442.98" y="189.17" width="14.3" height="30.04"/><path class="cls-8" d="M459.2,220.72H441.9v-33h17.3Zm-14.3-3h11.3v-27H444.9Z"/><path class="cls-5" d="M594,162.33l-37.2,34.23v15L594,177.83S594.07,171.49,594,162.33Z"/><path class="cls-5" d="M555.27,215V195.9l40.17-37,0,3.37c.1,9.08,0,15.48,0,15.54v.65Zm3-17.74v11l34.21-31c0-1.55.05-5.75,0-11.44Z"/><path class="cls-10" d="M464,351c3.76,0,6.8-3.61,6.8-8.06s-3.07-7.86-6.83-7.86h14c3.76,0,6.8-3.6,6.8-8.06s-3-8.06-6.8-8.06l-49.51-.08h56.11c3.76,0,6.8-3.61,6.8-8.06s-3-8.06-6.8-8.06l-56.4-.17,1.36,0h47.95c3.76,0,6.8-3.61,6.8-8.06s-3-8.06-6.8-8.06H398.64L426.21,259a9.16,9.16,0,0,0,0-11.4c-2.66-3.14-7.51-2.36-9.62,0l-13.06,9.26-41.84,29.67s-6.75,5.84-9.19,12.08h-6.21l.15,45.54h7a9.21,9.21,0,0,0,5.28,5.18C364.89,351.38,464,351,464,351Z"/><path class="cls-1" d="M445.68,352.56c-29.43,0-82.69-.22-87.44-1.79a10.3,10.3,0,0,1-5.73-5.1h-6.08v-3h8l.4.87a7.91,7.91,0,0,0,4.39,4.38c4.36,1.44,65.07,1.75,104.82,1.61,2.93,0,5.31-2.94,5.31-6.56s-2.34-6.35-5.33-6.35H430l-1.31,0c-1-.1-1.52-.41-1.52-1.46v-1.5H478c2.92,0,5.3-2.94,5.3-6.56s-2.38-6.56-5.3-6.56l-48.15-.07h-1.36v0c-1.12-.11-1.51-.43-1.51-1.45v-1.5h57.62c2.92,0,5.3-2.94,5.3-6.56s-2.38-6.56-5.3-6.56l-55-.15-1.36,0v0c-.7-.07-1.51-.35-1.51-1.48v-1.5h1.76l6.43,0h42.64c2.92,0,5.3-2.94,5.3-6.56s-2.38-6.56-5.3-6.56H395l30.08-30a7.62,7.62,0,0,0,0-9.42,4.43,4.43,0,0,0-3.41-1.54,5.38,5.38,0,0,0-3.95,1.57l-.25.22-54.84,38.89c-.61.54-6.56,5.91-8.72,11.44l-.37,1h-7.23v-3h5.21c2.79-6.12,8.93-11.47,9.2-11.71l.11-.09,54.77-38.84a8.38,8.38,0,0,1,6.1-2.44,7.42,7.42,0,0,1,5.66,2.6,10.59,10.59,0,0,1,0,13.34l-.09.09-25,25h75.21c4.58,0,8.3,4.29,8.3,9.56a10.31,10.31,0,0,1-2.39,6.71h1.18c4.57,0,8.3,4.29,8.3,9.56s-3.72,9.56-8.3,9.56h-.62a10.33,10.33,0,0,1,2.33,6.63c0,5.27-3.72,9.56-8.3,9.56h-7.81a10,10,0,0,1,2.17,6.35c0,5.27-3.72,9.56-8.3,9.56C461.61,352.54,454.79,352.56,445.68,352.56Z"/><path class="cls-1" d="M597.07,437l0-12.75H82.44v14.63l2.42,1.54c.38.24,9.25,5.88,11.22,7.09a12.73,12.73,0,0,0,6,1.77H577.33a12.74,12.74,0,0,0,6-1.77c2-1.2,10.84-6.85,11.22-7.09l2.52-1.61,0-1.82ZM85.44,427.3H594.09V437l-502.81.64c-1.23,0-2.92-.08-4.2-.21a4.12,4.12,0,0,1-1.64-.42ZM581.79,445a9.8,9.8,0,0,1-4.46,1.33H102.11A9.8,9.8,0,0,1,97.64,445c-1-.64-4.15-2.6-6.82-4.29H588.61C585.94,442.39,582.83,444.36,581.79,445Z"/><path class="cls-5" d="M332.73,79.71V379.13H557.16l1.21-1.26v-299H333.65ZM555.37,376.13H335.73V81.87H555.37Z"/><path class="cls-5" d="M595.47,44.87H370.76l-38,34.84v2.16H557.45l38-34.84Zm-39.19,34H338.09l33.83-31H590.12Z"/><rect class="cls-3" x="164.77" y="283.84" width="180.14" height="72.54"/><polygon class="cls-1" points="164.78 282.34 164.78 285.34 343.41 285.34 343.41 354.88 164.78 354.88 164.78 357.88 346.41 357.88 346.41 282.34 164.78 282.34"/></g></g></svg>