<svg xmlns="http://www.w3.org/2000/svg" viewBox="0 0 5.82 7.29"><defs><style>.cls-1{fill:#fff;fill-rule:evenodd;}</style></defs><title>Recurso 3</title><g id="Capa_2" data-name="Capa 2"><g id="_ÎÓÈ_1" data-name="—ÎÓÈ 1"><path class="cls-1" d="M3,.17v0H2.83v0H3Zm.9,4.43A2,2,0,0,1,3,5a1.55,1.55,0,0,1-1-.38l-.18.12a1,1,0,0,0,.42.34,1.78,1.78,0,0,0,.74.17,1.65,1.65,0,0,0,.7-.17,1.25,1.25,0,0,0,.45-.35L3.89,4.6Zm-2.32.18h0a1.13,1.13,0,0,0,.49.41,1.93,1.93,0,0,0,.81.18,1.79,1.79,0,0,0,.77-.18,1.36,1.36,0,0,0,.53-.42h.05V6.19H1.57V4.78Zm2.83,0,.32.1v.15A5.77,5.77,0,0,0,5,7.14H.85a5.77,5.77,0,0,0,.26-2.08V4.91l.32-.1V6.26a.07.07,0,0,0,.07.07H4.33a.07.07,0,0,0,.07-.07V4.81ZM4.86,5v.09a5.69,5.69,0,0,0,.26,2.08h.27a.29.29,0,0,0,.29-.29v-1h0a.84.84,0,0,0-.38-.66A2.06,2.06,0,0,0,4.86,5Zm.21,2.32H.43A.43.43,0,0,1,0,6.85v-1A1,1,0,0,1,.44,5.1a3.06,3.06,0,0,1,1.19-.48l.25-.16a4.91,4.91,0,0,0,0-.55V3.77l-.11-.13A2.33,2.33,0,0,1,1.46,3a2,2,0,0,1-.13-.68h0s0-.06,0-.08,0-.22,0-.31C1.32,1,1.3.24,2.69.18V.09A.07.07,0,0,1,2.75,0l.16,0,.17,0a.07.07,0,0,1,.06.07V.18C4.52.24,4.51,1,4.49,1.9c0,.09,0,.19,0,.31v.08h0A2,2,0,0,1,4.36,3,2.35,2.35,0,0,1,4,3.64l-.12.14v.15A4.8,4.8,0,0,0,4,4.47l.24.15a3,3,0,0,1,1.19.48,1,1,0,0,1,.44.78h0v1a.43.43,0,0,1-.13.31h0a.43.43,0,0,1-.31.13Zm-3-3.39a1.67,1.67,0,0,0,.27.2,1.15,1.15,0,0,0,.58.17,1.15,1.15,0,0,0,.58-.17,1.64,1.64,0,0,0,.27-.19v0a5.45,5.45,0,0,0,.05.55A1.84,1.84,0,0,1,3,4.83,1.42,1.42,0,0,1,2,4.48a5.27,5.27,0,0,0,0-.55v0ZM.7,7.14A5.69,5.69,0,0,0,1,5.06V5a2.06,2.06,0,0,0-.44.24.83.83,0,0,0-.38.66v1a.29.29,0,0,0,.29.29Zm.9-4.6a1.92,1.92,0,0,1-.13-.22,1.87,1.87,0,0,0,.12.63,2.19,2.19,0,0,0,.33.6l.12.14h0A1.61,1.61,0,0,0,2.41,4a1,1,0,0,0,.5.15A1,1,0,0,0,3.41,4a1.72,1.72,0,0,0,.48-.43,2.2,2.2,0,0,0,.33-.6,1.85,1.85,0,0,0,.12-.63h0l-.12.2a.07.07,0,0,1-.1,0l0,0a.6.6,0,0,0-.15-.15,1.9,1.9,0,0,0-1-.25,1.89,1.89,0,0,0-1,.25h0a.69.69,0,0,0-.17.17.07.07,0,0,1-.1,0l0,0Zm-.13-.62a2.46,2.46,0,0,1,1.46-.37,2.52,2.52,0,0,1,1.41.35C4.36,1,4.37.32,2.92.31h0C1.45.32,1.46,1,1.48,1.9v0Zm.13.33.07.12.15-.12h0A2,2,0,0,1,2.94,2,2,2,0,0,1,4,2.25l.12.1.17-.29,0,0a2.32,2.32,0,0,0-1.34-.33A2.31,2.31,0,0,0,1.57,2l-.05,0Z"/></g></g></svg>