<svg xmlns="http://www.w3.org/2000/svg" viewBox="0 0 4 6.02"><defs><style>.cls-1{fill:#fff;fill-rule:evenodd;}</style></defs><title>Recurso 2</title><g id="Capa_2" data-name="Capa 2"><g id="_ÎÓÈ_1" data-name="—ÎÓÈ 1"><path class="cls-1" d="M1.44.67,1,.12A.07.07,0,0,1,1,0L1,0H3A.07.07,0,0,1,3,.12L2.55.67v.41L3.84,2.14A.42.42,0,0,1,4,2.47V5.59a.43.43,0,0,1-.13.31h0a.43.43,0,0,1-.3.12H.43a.43.43,0,0,1-.31-.13h0A.43.43,0,0,1,0,5.59V2.47a.42.42,0,0,1,.16-.33L1.44,1.07V.67Zm1,.07H1.59V1h.82V.73ZM1.93,2.52v.32H1.57a.25.25,0,0,0-.18.07h0a.25.25,0,0,0-.07.18v.49a.25.25,0,0,0,.07.18h0a.25.25,0,0,0,.18.07h.36v.71H1.39a.07.07,0,0,0,0,.14h.54V5a.07.07,0,0,0,.14,0V4.69h.36a.25.25,0,0,0,.18-.07h0a.25.25,0,0,0,.07-.18V3.95a.25.25,0,0,0-.25-.25H2.07V3h.44a.07.07,0,1,0,0-.14H2.07V2.52a.07.07,0,1,0-.14,0Zm.14,1.32v.71h.36a.11.11,0,0,0,.08,0h0a.11.11,0,0,0,0-.08V3.95a.11.11,0,0,0-.11-.11ZM1.93,3.7V3H1.57a.11.11,0,0,0-.08,0h0a.11.11,0,0,0,0,.08v.49a.11.11,0,0,0,.11.11ZM1.17.14l.4.45h.86l.4-.45Zm2.58,2.1L2.44,1.16H1.56L.25,2.25a.28.28,0,0,0-.1.22V5.59a.29.29,0,0,0,.08.2h0a.29.29,0,0,0,.2.08H3.56a.29.29,0,0,0,.2-.08h0a.29.29,0,0,0,.08-.2V2.47a.29.29,0,0,0,0-.12A.29.29,0,0,0,3.75,2.25Z"/></g></g></svg>